<svg width="19" height="22" viewBox="0 0 19 22" fill="none" xmlns="http://www.w3.org/2000/svg">
<path fill-rule="evenodd" clip-rule="evenodd" d="M18.4744 15.3951C18.5303 15.4546 18.5839 15.5117 18.6348 15.5671C18.8893 15.8439 19.0021 16.1756 19 16.5C18.9957 17.2047 18.4495 17.875 17.6386 17.875H1.36141C0.550519 17.875 0.00469449 17.2047 2.93222e-05 16.5C-0.00209121 16.1756 0.110721 15.8443 0.365184 15.5671C0.416078 15.5117 0.469725 15.4546 0.525587 15.3951C1.3691 14.4966 2.7177 13.0602 2.7177 8.9375C2.7177 5.59883 5.02823 2.92617 8.14371 2.27047V1.375C8.14371 0.615742 8.75103 0 9.5 0C10.249 0 10.8563 0.615742 10.8563 1.375V2.27047C13.9718 2.92617 16.2823 5.59883 16.2823 8.9375C16.2823 13.0602 17.6309 14.4966 18.4744 15.3951ZM12.213 19.25C12.213 20.7689 10.9979 22 9.5 22C8.00206 22 6.78699 20.7689 6.78699 19.25H12.213Z" fill="white"/>
</svg>
