<svg width="30" height="39" viewBox="0 0 30 39" fill="none" xmlns="http://www.w3.org/2000/svg">
<path class="theme-fill" d="M22.1856 18.8906V21.0234C22.1856 21.5262 21.7696 21.9375 21.2612 21.9375H8.31961C7.81119 21.9375 7.39521 21.5262 7.39521 21.0234V18.8906C7.39521 18.3879 7.81119 17.9766 8.31961 17.9766H21.2612C21.7696 17.9766 22.1856 18.3879 22.1856 18.8906ZM21.2612 24.375H8.31961C7.81119 24.375 7.39521 24.7863 7.39521 25.2891V27.4219C7.39521 27.9246 7.81119 28.3359 8.31961 28.3359H21.2612C21.7696 28.3359 22.1856 27.9246 22.1856 27.4219V25.2891C22.1856 24.7863 21.7696 24.375 21.2612 24.375ZM29.5808 10.0471V35.3438C29.5808 37.3623 27.9246 39 25.8832 39H3.69761C1.65622 39 0 37.3623 0 35.3438V3.65625C0 1.6377 1.65622 0 3.69761 0H19.4201C20.3985 0 21.3383 0.388477 22.0316 1.07402L28.4947 7.46484C29.188 8.14277 29.5808 9.07969 29.5808 10.0471ZM19.7206 3.95332V9.75H25.5828L19.7206 3.95332ZM25.8832 35.3438V13.4062H17.8718C16.8472 13.4062 16.023 12.5912 16.023 11.5781V3.65625H3.69761V35.3438H25.8832Z" fill="#000"/>
</svg>
