<?xml version="1.0" encoding="utf-8"?>
<!-- Generator: Adobe Illustrator 16.0.0, SVG Export Plug-In . SVG Version: 6.00 Build 0)  -->
<!DOCTYPE svg PUBLIC "-//W3C//DTD SVG 1.1//EN" "http://www.w3.org/Graphics/SVG/1.1/DTD/svg11.dtd">
<svg version="1.1" id="Layer_1" xmlns="http://www.w3.org/2000/svg" xmlns:xlink="http://www.w3.org/1999/xlink" x="0px" y="0px"
	 width="893px" height="103px" viewBox="0 0 893 103" enable-background="new 0 0 893 103" xml:space="preserve">
<title>logo</title>
<desc>Created with Sketch.</desc>
<g>
	<path fill="#181F32" d="M128.432,57.016H89.543v29.001H135v13.267H73.093V4.602h61.451v13.264h-45v26.142h38.889V57.016z"/>
	<path fill="#181F32" d="M218.103,17.866h-29.521v81.417h-16.321V17.866h-29.262V4.602h75.104V17.866z"/>
	<path fill="#181F32" d="M305.697,99.283h-16.388V57.274h-42.333v42.009h-16.451V4.602h16.451v39.406h42.333V4.602h16.388V99.283z"
		/>
	<path fill="#181F32" d="M379.701,59.293h-38.108v39.99h-16.45V4.602h60.153v13.264h-43.703v28.16h38.108V59.293z"/>
	<path fill="#181F32" d="M415.663,99.283h-16.388V4.602h16.388V99.283z"/>
	<path fill="#181F32" d="M510.989,99.283h-16.454l-42.202-67.174v67.174h-16.45V4.602h16.45l42.336,67.433V4.602h16.32V99.283z"/>
	<path fill="#181F32" d="M585.781,57.016h-38.892v29.001h45.454v13.267h-61.909V4.602h61.452v13.264h-44.997v26.142h38.892V57.016z"
		/>
	<path fill="#181F32" d="M638.314,38.808l19.902-34.206h18.99l-28.613,46.951l29.256,47.73h-19.176l-20.359-34.728l-20.411,34.728
		h-19.124l29.33-47.73L599.433,4.602h18.987L638.314,38.808z"/>
</g>
<polygon fill="#B3B7CE" points="824.011,52.863 807.735,29.653 824.323,8.431 852.974,52.461 804.799,97.269 800.385,97.269 "/>
<polygon fill="#B3B7CE" points="731.558,52.863 747.833,29.653 731.253,8.431 702.604,52.461 755.184,97.269 759.598,97.269 "/>
<polygon fill="#9B9EBD" points="741.987,52.863 778.55,2.988 815.105,52.865 792.776,97.269 766.795,97.269 "/>
</svg>
