<svg width="21" height="14" viewBox="0 0 21 14" fill="none" xmlns="http://www.w3.org/2000/svg">
<path d="M18.4377 5.875H16.7647V4.1875C16.7647 3.25586 16.0138 2.5 15.0882 2.5H9.5L7.26471 0.25H1.67647C0.750919 0.25 0 1.00586 0 1.9375V12.0625C0 12.9941 0.750919 13.75 1.67647 13.75H15.6471C16.2233 13.75 16.7612 13.4512 17.0686 12.9555L19.8592 8.45547C20.5577 7.33398 19.7544 5.875 18.4377 5.875ZM1.67647 2.14844C1.67647 2.03242 1.77077 1.9375 1.88603 1.9375H6.56967L8.80496 4.1875H14.8787C14.9939 4.1875 15.0882 4.28242 15.0882 4.39844V5.875H5.30882C4.72206 5.875 4.17721 6.18437 3.87335 6.69062L1.67647 10.3539V2.14844ZM15.6471 12.0625H2.51471L5.21103 7.5625H18.4412L15.6471 12.0625Z" fill="white"/>
</svg>
