<svg xmlns="http://www.w3.org/2000/svg" width="1000" height="1000" viewBox="-450 -450 1000 1000"><path
    fill="#DE5959"
    d="M-15.6-101.9l-4.85-4.882c-3.672-3.667-9.98-1.07-9.98 4.13v69.723c0 3.22 2.642 5.84 5.87 5.84h69.74c5.2 0 7.817-6.298 4.12-9.96-2.28-2.28-2.28-5.972 0-8.247l74.176-74.404c2.285-2.267 2.285-5.958 0-8.248l-6.758-6.733c-3.672-3.668-1.055-9.967 4.13-9.967h69.698c3.223 0 5.86 2.617 5.86 5.84v69.717c0 5.2-6.32 7.803-10 4.13l-4.698-4.696c-2.295-2.344-5.986-2.344-8.232 0l-125.06 125c-2.27 2.275-5.956 2.275-8.256 0L-112.842-97.66c-2.3-2.3-2.3-5.997 0-8.282L98.965-317.74c2.275-2.28 2.275-6 0-8.27l-49.805-49.8c-2.28-2.27-5.972-2.27-8.262 0l-274.2 274.21c-2.27 2.28-2.27 6 0 8.27L40.87 180.84c2.28 2.266 6.002 2.266 8.272 0L323.3-93.33c2.266-2.28 2.266-5.98 0-8.252l-161.298-161.3c-2.256-2.27-5.967-2.27-8.252 0L-7.3-101.898c-2.3 2.3-6 2.3-8.3 0z"
  /><g fill="#DE5959"><path
      d="M196.73 365.625c-4.2 0-7.823 1.504-10.86 4.53-2.998 3.028-4.53 6.603-4.53 10.743 0 6.31 3.202 11.22 9.56 14.727 6.973 1.904 12.578.664 16.797-3.652 3.057-3.047 4.55-6.7 4.55-10.957 0-4.297-1.493-7.89-4.55-10.86-3.027-2.997-6.66-4.49-10.977-4.49v-.04h.01zM-50.8 248.535h-11.48c-4.96 0-9 3.994-9 8.965v6.406c-12.2-12.705-26.04-19.063-41.498-19.063-17.832 0-32.72 6.64-44.6 19.883-11.904 13.242-17.822 29.805-17.822 49.668 0 20.205 5.928 37.11 17.798 50.625 12.002 13.25 27.134 19.862 45.464 19.862 14.497 0 28.057-5.918 40.67-17.725v12.666c0 6.152 5 11.152 11.137 11.152h19.6V258.8c-.002-5.655-4.602-10.265-10.27-10.265zm-29.02 97.276c-7 7.804-16.142 11.7-27.5 11.7-10.62 0-19.428-4.014-26.4-12.1-6.802-7.96-10.2-18.33-10.2-31.035 0-11.875 3.5-21.875 10.47-29.94 7.07-7.99 15.873-11.954 26.4-11.954 11.162 0 20.22 3.946 27.202 11.876 6.997 8.066 10.498 18.3 10.498 30.723 0 12.43-3.5 22.675-10.498 30.75h.03v-.02zm-95.4-74.902v-13.096c0-5.137-4.14-9.258-9.258-9.258h-12.104c-5.098 0-9.248 4.102-9.248 9.238v5.703c-11.07-12.422-24.95-18.652-41.64-18.652-19.05 0-34.4 7.197-46.002 21.504-10.8 13.496-16.196 29.922-16.196 49.258 0 19.854 5.815 36.436 17.437 49.668 11.522 13.096 26.303 19.59 44.36 19.59 15.858 0 29.882-6.19 42.04-18.623v18.506c0 27.5-11.2 41.25-33.6 41.25-12.162 0-21.4-4.14-27.748-12.402-1.62-2.09-2.964-4.688-4.033-7.822-1.5-4.385-5.67-7.295-10.28-7.295h-11.6c-5.85 0-10.2 5.566-8.722 11.23 3.174 12.07 9.302 21.875 18.423 29.453 11.432 9.53 26.002 14.297 43.678 14.297 20.952 0 37.422-6.895 49.404-20.664 6.348-7.168 10.596-15.742 12.778-25.723.728-3.594 1.3-7.822 1.7-12.598.4-4.746.6-10.254.6-16.523v-19.26c-8.57-12.343-12.88-27.1-12.88-44.296 0-16.904 4.3-31.348 12.88-43.486h.01zM-214 344.766c-6.8 8.506-16.04 12.744-27.758 12.744-11.704 0-20.864-4.2-27.5-12.666-6.064-7.695-9.102-17.598-9.102-29.648 0-12.266 3.037-22.246 9.102-29.94 6.73-8.605 15.88-12.91 27.5-12.91 10.88 0 19.82 3.944 26.797 11.825 6.898 7.706 10.36 18 10.36 30.9 0 12.06-3.14 21.942-9.4 29.677v.02zm293.297-96.133v-.098H15.8v-38.887c0-5-4.042-9.043-9.052-9.043H-5.65c-5.048 0-9.15 4.102-9.15 9.16v38.77h-13.08v28.545h13.062v113.877h17.46c7.28 0 13.14-5.86 13.14-13.145V277.1h31.396c2.48-4.736 5.483-9.102 9.053-13.096 6.505-7.11 14.2-12.227 23.048-15.37h.02zm156.23-48.028c-5.43 0-10.098 1.963-14.004 5.88-3.887 3.895-5.86 8.534-5.86 13.876 0 5.636 1.954 10.362 5.86 14.298 3.906 3.896 8.633 5.84 14.16 5.84 5.537 0 10.205-1.943 13.984-5.86 3.906-3.935 5.88-8.603 5.88-14.15 0-5.526-1.954-10.214-5.87-14.003-3.926-3.936-8.643-5.898-14.17-5.898l.02.018zm6.202 62.95h-11.105c-5.693 0-10.332 4.59-10.332 10.332v97.188c2.344 2.754 3.467 6.006 3.467 9.756s-1.104 7.032-3.467 9.796v5.47H240c6.035 0 10.918-4.903 10.918-10.94v-112.46c0-5.06-4.12-9.16-9.2-9.16l.01.02zm143.895 18.75c-13.79-13.496-30.576-20.254-50.352-20.254-19.688 0-36.387 6.7-50.078 20.157-13.69 13.398-20.547 29.688-20.547 48.828 0 20.303 6.7 37.207 20.137 50.635 13.438 13.604 30.098 20.4 49.94 20.4 20.04 0 36.954-6.66 50.753-20 13.662-13.457 20.537-30.068 20.537-49.94 0-19.698-6.796-36.3-20.39-49.825zm-21.66 80.84c-7.148 7.725-16.72 11.543-28.71 11.543-11.896 0-21.446-3.877-28.712-11.7-7.07-7.694-10.625-18.202-10.625-31.425 0-12.324 3.652-22.402 10.898-30.195 7.266-7.813 16.738-11.71 28.457-11.71 11.865 0 21.445 3.897 28.69 11.71 7.17 7.695 10.763 17.988 10.763 30.86 0 12.91-3.613 23.192-10.762 30.897v.04-.02z"
    /><path
      d="M90.703 357.793c-6.31-6.387-9.834-15.098-10.645-25.996h87.754c4.004 0 7.305-3.203 7.363-7.197 0-21.904-5.625-38.955-16.865-51.3-11.357-12.43-26.807-18.642-46.28-18.642-19.296 0-34.823 6.396-46.522 19.19-11.616 12.987-17.417 29.93-17.417 50.897 0 21.123 6.002 38.096 17.945 50.88 8.36 8.895 18.604 14.647 30.762 17.323 5.098 1.2 10.38 1.836 15.723 1.758 21.797.45 40.762.898 62.56 1.348l.038-3.203c-2.666-2.9-4.004-6.405-4.004-10.468 0-3.965 1.396-7.373 4.12-10.322l.02-3.877c-17.187-.43-58.866-.84-60.526-.84-9.766 0-17.793-3.154-24.023-9.53v-.02zm-4.258-61.21c1.924-3.01 4.2-5.548 6.885-7.677 2.705-2.168 5.635-3.77 8.916-4.902 3.262-1.133 6.758-1.7 10.508-1.7 16.29 0 26.602 8.146 30.898 24.474H82.1c1.006-3.81 2.45-7.207 4.346-10.215v.02z"
    /></g></svg>
