<svg width="18" height="16" viewBox="0 0 18 16" fill="none" xmlns="http://www.w3.org/2000/svg">
<path class="theme-fill" d="M17.7534 6.04346L16.9579 5.37882C16.6284 5.10351 16.0941 5.10351 15.7647 5.37882L15.5658 5.54499L11.5883 2.22177L11.7871 2.05561C12.1167 1.78029 12.1167 1.33394 11.7871 1.05865L10.9917 0.393987C10.6621 0.118671 10.1279 0.118671 9.79842 0.393987L5.42319 4.04953C5.09367 4.32485 5.09367 4.77121 5.42319 5.04649L6.21867 5.71112C6.54819 5.98644 7.08243 5.98644 7.41191 5.71112L7.61079 5.54496L9.00291 6.70809L6.15384 9.0885L5.95496 8.92234C5.51562 8.55526 4.80332 8.55526 4.36397 8.92234L0.329999 12.2928C-0.109349 12.6599 -0.109349 13.255 0.329999 13.6221L1.921 14.9514C2.36034 15.3185 3.07264 15.3185 3.51199 14.9514L7.546 11.581C7.98534 11.2139 7.98534 10.6187 7.546 10.2517L7.34712 10.0855L10.1962 7.70508L11.5883 8.8682L11.3894 9.03437C11.0599 9.30969 11.0599 9.75604 11.3894 10.0313L12.1849 10.696C12.5144 10.9713 13.0487 10.9713 13.3781 10.696L17.7534 7.04042C18.0829 6.76513 18.0829 6.31877 17.7534 6.04346Z" fill="#000"/>
</svg>
