<svg width="14" height="18" viewBox="0 0 14 18" fill="none" xmlns="http://www.w3.org/2000/svg">
<path class="theme-fill" d="M12.6562 0H0.84375C0.377754 0 0 0.377754 0 0.84375V1.40625C0 1.87225 0.377754 2.25 0.84375 2.25C0.84375 5.44799 2.63728 8.1469 5.0921 9C2.63728 9.8531 0.84375 12.552 0.84375 15.75C0.377754 15.75 0 16.1278 0 16.5938V17.1562C0 17.6222 0.377754 18 0.84375 18H12.6562C13.1222 18 13.5 17.6222 13.5 17.1562V16.5938C13.5 16.1278 13.1222 15.75 12.6562 15.75C12.6562 12.552 10.8627 9.8531 8.4079 9C10.8627 8.1469 12.6562 5.44799 12.6562 2.25C13.1222 2.25 13.5 1.87225 13.5 1.40625V0.84375C13.5 0.377754 13.1222 0 12.6562 0ZM10.4062 15.75H3.09375C3.09375 13.0269 4.71811 10.6875 6.75 10.6875C8.78154 10.6875 10.4062 13.026 10.4062 15.75Z" fill="#000"/>
</svg>
