<svg width="29" height="39" viewBox="0 0 29 39" fill="none" xmlns="http://www.w3.org/2000/svg">
<path class="theme-fill" d="M27.9359 7.45703L21.5996 1.06621C20.9199 0.380664 19.9985 -0.0078125 19.0393 -0.0078125H3.6251C1.62374 -0.000195312 0 1.6375 0 3.65605V35.3436C0 37.3621 1.62374 38.9998 3.6251 38.9998H25.3757C27.3771 38.9998 29.0008 37.3621 29.0008 35.3436V10.0469C29.0008 9.07949 28.6157 8.14258 27.9359 7.45703ZM25.0812 9.74981H19.3339V3.95313L25.0812 9.74981ZM3.6251 35.3436V3.65605H15.7088V11.5779C15.7088 12.591 16.5169 13.4061 17.5213 13.4061H25.3757V35.3436H3.6251ZM6.04184 31.6873H22.959V21.9373L21.1842 20.1473C20.8292 19.7893 20.2553 19.7893 19.9003 20.1473L13.292 26.8123L10.3089 23.8035C9.95393 23.4455 9.37995 23.4455 9.025 23.8035L6.04184 26.8123V31.6873ZM9.66694 13.4061C7.66558 13.4061 6.04184 15.0438 6.04184 17.0623C6.04184 19.0809 7.66558 20.7186 9.66694 20.7186C11.6683 20.7186 13.292 19.0809 13.292 17.0623C13.292 15.0438 11.6683 13.4061 9.66694 13.4061Z" fill="#000"/>
</svg>
