<svg width="11" height="11" viewBox="0 0 11 11" fill="none" xmlns="http://www.w3.org/2000/svg">
<path class="theme-fill" d="M5.5 0.171875C2.55756 0.171875 0.171875 2.55842 0.171875 5.5C0.171875 8.44329 2.55756 10.8281 5.5 10.8281C8.44244 10.8281 10.8281 8.44329 10.8281 5.5C10.8281 2.55842 8.44244 0.171875 5.5 0.171875ZM5.5 2.53516C5.99835 2.53516 6.40234 2.93915 6.40234 3.4375C6.40234 3.93585 5.99835 4.33984 5.5 4.33984C5.00165 4.33984 4.59766 3.93585 4.59766 3.4375C4.59766 2.93915 5.00165 2.53516 5.5 2.53516ZM6.70312 7.99219C6.70312 8.13456 6.58769 8.25 6.44531 8.25H4.55469C4.41231 8.25 4.29688 8.13456 4.29688 7.99219V7.47656C4.29688 7.33419 4.41231 7.21875 4.55469 7.21875H4.8125V5.84375H4.55469C4.41231 5.84375 4.29688 5.72831 4.29688 5.58594V5.07031C4.29688 4.92794 4.41231 4.8125 4.55469 4.8125H5.92969C6.07206 4.8125 6.1875 4.92794 6.1875 5.07031V7.21875H6.44531C6.58769 7.21875 6.70312 7.33419 6.70312 7.47656V7.99219Z" fill="#000"/>
</svg>
