<svg width="148" height="48" viewBox="0 0 148 48" fill="none" xmlns="http://www.w3.org/2000/svg">
<g clip-path="url(#clip0)">
<path
      fill-rule="evenodd"
      clip-rule="evenodd"
      d="M66.8128 24.4104H66.1851V18.8154H64.5027V31.9453H66.1851V25.796H66.7628L72.0605 32.273L73.3411 31.1893L68.2439 25.0151L72.5879 19.4961L71.3072 18.4883L66.8128 24.4104ZM81.4519 18.8151H79.7696V31.945H88.3068V30.4329H81.4519V18.8151ZM94.5094 18.8151H102.67V20.3274H96.1914V24.2586H101.54V25.7705H96.1914V30.4328H102.67V31.9448H94.5094V18.8151ZM113.819 18.8151H109.375V31.945H111.057V26.325H113.493L116.832 32.2728L118.288 31.3908L115.074 26.073C116.656 25.5943 117.736 24.0065 117.736 22.3938C117.736 19.8483 116.004 18.8151 113.819 18.8151ZM115.978 22.3937C115.978 23.8805 114.899 24.813 113.266 24.813H111.057V20.3274H113.769C115.275 20.3274 115.978 21.2093 115.978 22.3937ZM132.877 25.393C132.877 26.4513 132.802 32.172 128.232 32.172C126.123 32.172 123.587 30.66 123.587 25.393C123.587 20.1509 126.072 18.5885 128.232 18.5885C130.316 18.5885 132.877 20.1006 132.877 25.393ZM125.345 25.393C125.345 27.3082 125.696 30.5843 128.232 30.5843C130.768 30.5843 131.12 27.3082 131.12 25.393C131.12 23.4522 130.768 20.1763 128.232 20.1763C125.696 20.1762 125.345 23.4522 125.345 25.393ZM143.424 30.5843C141.666 30.5843 140.888 29.3998 140.561 27.7871L139.055 28.2657C139.457 30.6095 140.988 32.172 143.424 32.172C145.834 32.172 147.567 30.7607 147.567 28.2657C147.567 26.9049 146.939 25.8464 145.759 25.1913L142.972 23.9565C141.968 23.5029 141.214 23.15 141.214 21.9152C141.214 20.7306 142.269 20.1763 143.349 20.1763C144.78 20.1763 145.458 21.0834 145.759 22.3687L147.366 21.89C146.839 19.8486 145.558 18.5885 143.374 18.5885C141.315 18.5885 139.532 19.8233 139.532 22.0411C139.532 24.2937 141.036 24.9112 142.749 25.6141C142.914 25.6819 143.08 25.7504 143.248 25.8212C143.353 25.8645 143.458 25.907 143.563 25.9493C144.741 26.4246 145.885 26.8856 145.885 28.3667C145.885 29.8283 144.805 30.5843 143.424 30.5843Z"
      fill="white"
    />
<path
      fill-rule="evenodd"
      clip-rule="evenodd"
      d="M15.6356 1L42.4109 2.19704L53.2512 26.288L37.9576 48.3055L11.0367 46.5812L0 20.4788L15.6356 1ZM35.2655 14.8866L15.8604 23.3666L32.4506 36.1964L35.2655 14.8866ZM33.0188 10.6374L17.511 3.95872L14.2534 18.0009L33.0188 10.6374ZM29.0882 39.4245L12.2342 27.3872L12.6418 43.6985L29.0882 39.4245ZM50.5592 26.2349L39.0741 14.5781L36.0427 36.9936L50.5592 26.2349ZM33.0397 42.0464L18.8256 45.7623L35.5413 46.8329L33.0397 42.0464ZM48.3148 31.5236L35.8723 40.7944L38.3447 45.6271L48.3148 31.5236ZM42.4294 5.56301L40.0127 10.5252L49.008 19.6709L42.4294 5.56301ZM39.4184 3.18844L23.6224 2.54712L36.6522 8.24748L39.4184 3.18844ZM13.3289 5.48314L2.26489 19.4568L9.66208 21.024L13.3289 5.48314ZM9.21605 23.7651L1.78321 22.1911L9.5388 40.466L9.21605 23.7651Z"
      fill="white"
    />
</g>
<defs>
<clipPath id="clip0">
<rect width="148" height="48" fill="white" />
</clipPath>
</defs>
</svg>
