<svg width="32" height="32" viewBox="0 0 32 32" fill="none" xmlns="http://www.w3.org/2000/svg">
<path class="theme-fill" d="M20.4132 11.5869C24.1474 15.325 24.0962 21.3181 20.4357 24.9988C20.4289 25.0063 20.4207 25.0144 20.4132 25.0219L16.2132 29.2219C12.5089 32.9263 6.48208 32.9258 2.77828 29.2219C-0.926092 25.5182 -0.926092 19.4907 2.77828 15.7869L5.0974 13.4678C5.7124 12.8528 6.77152 13.2616 6.80327 14.1307C6.84377 15.2383 7.04239 16.3511 7.40889 17.4257C7.53302 17.7896 7.44433 18.1921 7.17246 18.464L6.35452 19.2819C4.6029 21.0336 4.54796 23.8857 6.28233 25.6544C8.03383 27.4406 10.9127 27.4512 12.6776 25.6863L16.8776 21.4869C18.6396 19.725 18.6322 16.8771 16.8776 15.1226C16.6463 14.8917 16.4133 14.7123 16.2313 14.587C16.1026 14.4986 15.9962 14.3813 15.9209 14.2445C15.8455 14.1077 15.8031 13.9552 15.7971 13.7991C15.7724 13.1387 16.0064 12.4581 16.5282 11.9363L17.8441 10.6203C18.1892 10.2753 18.7305 10.2329 19.1306 10.5121C19.5888 10.8321 20.018 11.1918 20.4132 11.5869ZM29.2217 2.77809C25.5179 -0.925779 19.4911 -0.926279 15.7867 2.77809L11.5867 6.97808C11.5792 6.98558 11.5711 6.9937 11.5642 7.0012C7.90383 10.6819 7.85252 16.675 11.5867 20.4131C11.9819 20.8082 12.411 21.1679 12.8693 21.4878C13.2694 21.7671 13.8108 21.7246 14.1558 21.3796L15.4716 20.0637C15.9935 19.5418 16.2275 18.8612 16.2027 18.2008C16.1968 18.0447 16.1544 17.8922 16.079 17.7554C16.0036 17.6186 15.8973 17.5014 15.7686 17.4129C15.5866 17.2876 15.3536 17.1082 15.1223 16.8774C13.3677 15.1228 13.3603 12.2749 15.1223 10.513L19.3222 6.31364C21.0872 4.54871 23.966 4.55933 25.7175 6.34552C27.4519 8.11427 27.397 10.9664 25.6454 12.718L24.8274 13.5359C24.5555 13.8078 24.4669 14.2103 24.591 14.5742C24.9575 15.6488 25.1561 16.7616 25.1966 17.8692C25.2284 18.7384 26.2875 19.1471 26.9025 18.5321L29.2216 16.213C32.926 12.5093 32.926 6.48183 29.2217 2.77809Z" fill="#000"/>
</svg>
