<svg width="30" height="39" viewBox="0 0 30 39" fill="none" xmlns="http://www.w3.org/2000/svg">
<path d="M13.7651 19.5076C13.3867 18.2889 13.3943 15.9352 13.6138 15.9352C14.2494 15.9352 14.1889 18.7459 13.7651 19.5076ZM13.6365 23.1029C13.0538 24.6416 12.3273 26.4012 11.4873 27.8789C12.8722 27.3457 14.4386 26.5688 16.2472 26.2107C15.2862 25.4795 14.3629 24.4283 13.6365 23.1029ZM6.51553 32.6092C6.51553 32.6701 7.51443 32.1978 9.15656 29.5471C8.64954 30.027 6.95444 31.4133 6.51553 32.6092ZM18.7672 12.1875H29.0588V37.1719C29.0588 38.185 28.2491 39 27.2426 39H1.81618C0.809712 39 0 38.185 0 37.1719V1.82812C0 0.815039 0.809712 0 1.81618 0H16.951V10.3594C16.951 11.3648 17.7683 12.1875 18.7672 12.1875ZM18.1618 25.2738C16.6483 24.3445 15.6418 23.0648 14.9305 21.1758C15.271 19.7666 15.8083 17.6262 15.3997 16.2855C15.044 14.0461 12.1911 14.267 11.7824 15.7676C11.4041 17.1615 11.7522 19.1268 12.3954 21.6328C11.5176 23.7352 10.2236 26.5535 9.3079 28.1684C9.30034 28.1684 9.30034 28.176 9.29277 28.176C7.242 29.2348 3.72316 31.5656 5.16854 33.3557C5.59231 33.8812 6.37932 34.1174 6.79553 34.1174C8.15009 34.1174 9.49709 32.7463 11.4192 29.41C13.3716 28.7625 15.5132 27.9551 17.3975 27.6428C19.0396 28.5416 20.9617 29.1281 22.2406 29.1281C24.4503 29.1281 24.6016 26.6906 23.7314 25.8223C22.6795 24.7863 19.6223 25.0834 18.1618 25.2738ZM28.5291 7.99805L21.1131 0.533203C20.7725 0.19043 20.3109 0 19.8266 0H19.3725V9.75H29.0588V9.28535C29.0588 8.80547 28.8696 8.34082 28.5291 7.99805ZM22.9217 27.4447C23.2319 27.2391 22.7325 26.5383 19.6828 26.7592C22.4903 27.9627 22.9217 27.4447 22.9217 27.4447Z" fill="#4D00B4"/>
</svg>
