<svg width="19" height="16" viewBox="0 0 19 16" fill="none" xmlns="http://www.w3.org/2000/svg">
<path d="M1.14286 14.8571C1.14286 15.4893 1.65357 16 2.28571 16H8V10.2857H1.14286V14.8571ZM10.2857 16H16C16.6321 16 17.1429 15.4893 17.1429 14.8571V10.2857H10.2857V16ZM17.1429 4.57143H15.6393C15.8607 4.13929 16 3.66071 16 3.14286C16 1.41071 14.5893 0 12.8571 0C11.3714 0 10.4107 0.760714 9.17857 2.43929C7.94643 0.760714 6.98571 0 5.5 0C3.76786 0 2.35714 1.41071 2.35714 3.14286C2.35714 3.66071 2.49286 4.13929 2.71786 4.57143H1.14286C0.510714 4.57143 0 5.08214 0 5.71429V8.57143C0 8.88571 0.257143 9.14286 0.571429 9.14286H17.7143C18.0286 9.14286 18.2857 8.88571 18.2857 8.57143V5.71429C18.2857 5.08214 17.775 4.57143 17.1429 4.57143ZM5.49643 4.57143C4.70714 4.57143 4.06786 3.93214 4.06786 3.14286C4.06786 2.35357 4.70714 1.71429 5.49643 1.71429C6.20714 1.71429 6.73214 1.83214 8.57143 4.57143H5.49643ZM12.8571 4.57143H9.78214C11.6179 1.83929 12.1286 1.71429 12.8571 1.71429C13.6464 1.71429 14.2857 2.35357 14.2857 3.14286C14.2857 3.93214 13.6464 4.57143 12.8571 4.57143Z" fill="white"/>
</svg>
