<svg width="20" height="16" viewBox="0 0 20 16" fill="none" xmlns="http://www.w3.org/2000/svg">
<path d="M7.85455 10.5H7.85393C7.85393 9.99438 7.89505 10.2272 5.24444 4.82781C4.70291 3.725 3.15225 3.72281 2.6098 4.82781C-0.0632047 10.2734 0.000613636 10.0103 0.000613636 10.5H0C0 11.8806 1.75837 13 3.92727 13C6.09617 13 7.85455 11.8806 7.85455 10.5ZM3.92727 5.5L6.13636 10H1.71818L3.92727 5.5ZM19.6357 10.5C19.6357 9.99438 19.6769 10.2272 17.0263 4.82781C16.4847 3.725 14.9341 3.72281 14.3916 4.82781C11.7186 10.2734 11.7824 10.0103 11.7824 10.5H11.7818C11.7818 11.8806 13.5402 13 15.7091 13C17.878 13 19.6364 11.8806 19.6364 10.5H19.6357ZM13.5 10L15.7091 5.5L17.9182 10H13.5ZM16.2 14H10.8V4.78906C11.5213 4.4675 12.0629 3.80531 12.2233 3H16.2C16.4712 3 16.6909 2.77625 16.6909 2.5V1.5C16.6909 1.22375 16.4712 1 16.2 1H11.7708C11.3228 0.39625 10.6187 0 9.81818 0C9.01769 0 8.31355 0.39625 7.86559 1H3.43636C3.16514 1 2.94545 1.22375 2.94545 1.5V2.5C2.94545 2.77625 3.16514 3 3.43636 3H7.41303C7.5735 3.805 8.11473 4.4675 8.83636 4.78906V14H3.43636C3.16514 14 2.94545 14.2238 2.94545 14.5V15.5C2.94545 15.7762 3.16514 16 3.43636 16H16.2C16.4712 16 16.6909 15.7762 16.6909 15.5V14.5C16.6909 14.2238 16.4712 14 16.2 14Z" fill="white"/>
</svg>
