<svg width="144" height="41" viewBox="0 0 144 41" fill="none" xmlns="http://www.w3.org/2000/svg">
<g clip-path="url(#clip0)">
<path
      fill-rule="evenodd"
      clip-rule="evenodd"
      d="M0 27.2584V20.2257C0 9.05532 9.05533 0 20.2257 0C25.7354 0 30.7305 2.2031 34.3783 5.77643L30.0786 8.46316C27.413 6.22797 23.9765 4.88205 20.2257 4.88205C11.7516 4.88205 4.88205 11.7516 4.88205 20.2257H9.76409L0 27.2584ZM10.2988 31.9256C12.9746 34.1983 16.4402 35.5693 20.2259 35.5693C28.6999 35.5693 35.5695 28.6997 35.5695 20.2257H30.6875L40.4512 13.077L40.4516 20.2257C40.4516 31.396 31.3962 40.4514 20.2259 40.4514C14.682 40.4514 9.65911 38.2209 6.00558 34.6083L10.2988 31.9256ZM27.9847 26.9385H22.4052L20.2259 23.9946L18.0466 26.9385H12.4672L17.5218 20.3418L12.4667 13.5129H17.6975L20.2259 16.8127L22.7543 13.5129H27.9851L22.93 20.3418L27.9847 26.9385Z"
      fill="black"
    />
</g>
<path
    d="M66.5992 12.5203L62.6899 13.751C62.521 12.7616 62.0263 11.8566 61.2058 11.0362C60.3853 10.2157 59.2029 9.80545 57.6585 9.80545C56.3795 9.80545 55.3177 10.1674 54.4731 10.8914C53.6526 11.6153 53.2424 12.4841 53.2424 13.4976C53.2424 15.2592 54.2438 16.3572 56.2468 16.7915L59.9389 17.5517C62.159 17.9861 63.8723 18.8669 65.0789 20.1941C66.2855 21.5213 66.8888 23.102 66.8888 24.936C66.8888 27.0595 66.0683 28.8935 64.4274 30.438C62.8106 31.9583 60.6025 32.7184 57.8032 32.7184C54.7868 32.7184 52.434 31.9341 50.7448 30.3656C49.0555 28.7729 48.1023 26.9268 47.8852 24.8274L51.9393 23.669C52.0841 25.1169 52.6632 26.3356 53.6767 27.325C54.6903 28.3144 56.0658 28.8091 57.8032 28.8091C59.2994 28.8091 60.4457 28.4833 61.242 27.8318C62.0625 27.1561 62.4727 26.2994 62.4727 25.2617C62.4727 24.4171 62.1711 23.6932 61.5678 23.0899C60.9645 22.4625 60.1199 22.0281 59.034 21.7868L55.4142 21.0266C53.4113 20.6164 51.8186 19.7839 50.6362 18.529C49.4778 17.2742 48.8987 15.7056 48.8987 13.8234C48.8987 11.6756 49.7554 9.82958 51.4687 8.28516C53.182 6.74073 55.2332 5.96852 57.6223 5.96852C60.3491 5.96852 62.4365 6.63214 63.8844 7.95938C65.3323 9.26249 66.2372 10.7828 66.5992 12.5203Z"
    fill="black"
  />
<path
    d="M78.6179 14.5473H82.9616L87.1243 26.7458L90.6354 14.5473H94.9067L89.2599 32.1754H85.061L80.6811 19.5063L76.4098 32.1754H72.1023L66.3832 14.5473H70.8716L74.4552 26.7458L78.6179 14.5473Z"
    fill="black"
  />
<path
    d="M95.1066 27.3974C95.1066 25.9012 95.5893 24.7067 96.5545 23.8138C97.5439 22.8968 98.835 22.3177 100.428 22.0764L104.952 21.3886C105.821 21.268 106.255 20.8457 106.255 20.1217C106.255 19.3254 105.978 18.6859 105.423 18.2032C104.868 17.6965 104.035 17.4431 102.925 17.4431C101.863 17.4431 101.019 17.7447 100.391 18.348C99.764 18.9272 99.4021 19.6873 99.3055 20.6285L95.4686 19.7597C95.6375 18.167 96.3977 16.8157 97.7491 15.7056C99.1004 14.5714 100.814 14.0043 102.889 14.0043C105.447 14.0043 107.329 14.6197 108.536 15.8504C109.767 17.0811 110.382 18.6617 110.382 20.5923V29.352C110.382 30.5104 110.454 31.4515 110.599 32.1754H106.69C106.569 31.8135 106.509 31.0654 106.509 29.9312C105.351 31.7893 103.541 32.7184 101.079 32.7184C99.2935 32.7184 97.8456 32.1996 96.7355 31.1619C95.6496 30.1001 95.1066 28.8453 95.1066 27.3974ZM101.876 29.4244C103.179 29.4244 104.228 29.0745 105.025 28.3747C105.845 27.6508 106.255 26.4804 106.255 24.8636V24.0672L101.658 24.755C100.09 25.0204 99.3055 25.8168 99.3055 27.144C99.3055 27.7714 99.5348 28.3144 99.9933 28.7729C100.452 29.2073 101.079 29.4244 101.876 29.4244Z"
    fill="black"
  />
<path
    d="M117.811 39.0529H113.648V14.5473H117.702V16.9363C118.161 16.14 118.884 15.4764 119.874 14.9455C120.863 14.4146 122.01 14.1491 123.313 14.1491C125.846 14.1491 127.837 15.0179 129.285 16.7553C130.733 18.4687 131.457 20.6647 131.457 23.3433C131.457 26.0219 130.697 28.242 129.177 30.0036C127.656 31.7411 125.653 32.6098 123.168 32.6098C121.961 32.6098 120.887 32.3806 119.946 31.9221C119.005 31.4636 118.293 30.8844 117.811 30.1846V39.0529ZM127.258 23.3433C127.258 21.7023 126.824 20.3872 125.955 19.3978C125.086 18.3842 123.94 17.8775 122.516 17.8775C121.117 17.8775 119.97 18.3842 119.078 19.3978C118.209 20.3872 117.774 21.7023 117.774 23.3433C117.774 25.0084 118.209 26.3477 119.078 27.3612C119.97 28.3747 121.117 28.8815 122.516 28.8815C123.916 28.8815 125.05 28.3747 125.919 27.3612C126.812 26.3477 127.258 25.0084 127.258 23.3433Z"
    fill="black"
  />
<path
    d="M144 14.4387V18.71C143.517 18.6376 143.059 18.6014 142.624 18.6014C139.463 18.6014 137.883 20.3268 137.883 23.7776V32.1754H133.684V14.5473H137.774V17.3707C138.184 16.4296 138.848 15.6936 139.765 15.1627C140.682 14.6076 141.72 14.3301 142.878 14.3301C143.264 14.3301 143.638 14.3663 144 14.4387Z"
    fill="black"
  />
<defs>
<clipPath id="clip0">
<rect width="40.2309" height="40.2309" fill="white" transform="scale(1.00548)" />
</clipPath>
</defs>
</svg>
