<svg width="135" height="65" viewBox="0 0 135 65" fill="none" xmlns="http://www.w3.org/2000/svg">
<path fill-rule="evenodd" clip-rule="evenodd" d="M6.21427 35.4043C5.29132 36.666 6.02206 38.9582 8.40651 42.2806C10.791 45.6031 13.535 48.404 16.6385 50.6832L13.0709 55.5976L11.035 67.6311L20.9936 53.7366L33.4433 62.3746C37.7434 57.4889 40.1324 53.2205 40.6103 49.5692C41.0881 45.9179 40.0441 42.9758 37.4781 40.7431C36.7042 36.0538 37.414 33.7854 39.6077 33.9381L48.7451 36.5943C49.9769 38.9203 51.1958 40.1631 52.4018 40.3227C54.2107 40.5621 56.474 40.7431 57.9359 40.5283C59.3978 40.3135 59.9429 38.8916 60.5727 37.1783C61.2025 35.4651 61.9887 35.4169 61.9887 33.9381C61.9887 32.4592 55.6128 25.9483 52.6469 21.1593C53.2233 18.8573 52.8124 17.2151 51.414 16.2327C50.0157 15.2504 49.7424 14.3742 50.5942 13.6041L63.456 0.943359C53.327 4.66988 48.0027 6.58281 47.4832 6.68214L48.0114 4.36513C45.7719 4.61552 44.2105 5.29618 43.3273 6.4071L42.8449 1.28277C39.764 2.13458 37.9751 3.76313 37.4781 6.16841C34.7469 4.68117 32.096 4.17173 29.5254 4.64008C25.6695 5.34261 26.103 6.74388 20.6434 7.02785C15.1838 7.31182 12.8596 9.24138 8.40651 10.1031C5.4378 10.6775 2.06727 10.3953 -1.70508 9.25648L2.55377 13.6041L-0.627422 16.848L5.01321 17.1328L4.19414 18.1395L7.1059 19.615L5.01321 22.4689H7.41915C6.91883 23.6115 4.45684 25.6996 0.0332026 28.7332L5.71242 27.8075L0.0332026 33.6069L4.67758 32.6684L1.46527 37.0777L6.21427 35.4043Z" fill="white"/>
<mask id="mask0" mask-type="alpha" maskUnits="userSpaceOnUse" x="3" y="4" width="58" height="57">
<path d="M38.0089 7.84396L41.2886 4.81688L42.0528 9.76374L45.6718 7.24412L45.4399 11.1735C47.317 13.1938 48.3161 15.0707 48.4371 16.8039C48.5582 18.5372 52.0355 23.4994 58.869 31.6906C60.3611 33.4099 60.5854 34.8131 59.5419 35.9002C57.9767 37.5308 59.7624 38.7276 56.9226 38.9534C54.0828 39.1791 52.171 38.9961 51.4409 37.4848C50.9542 36.4773 50.5563 35.7337 50.2472 35.254L39.7408 32.4393C37.7058 32.3423 36.5122 32.951 36.16 34.2653C35.8077 35.5796 35.808 38.0886 36.1608 41.7924C38.4969 43.5231 39.3902 46.2017 38.8406 49.8282C38.2911 53.4547 36.4573 56.9832 33.3391 60.4137C25.8882 55.4859 20.8474 51.9566 18.2168 49.8258C8.63673 42.066 5.50961 36.2693 8.83542 32.4357L8.1264 30.4611L3.70222 31.7867C7.17959 27.8635 9.44214 25.7556 10.4899 25.4629C11.5376 25.1703 9.87887 25.6245 5.51368 26.8256C8.07993 24.8245 9.51453 23.2588 9.81747 22.1284C10.2719 20.4328 10.8706 17.7683 13.6666 16.3863L8.83377 18.286C11.3657 15.1658 13.6631 13.4367 15.7258 13.0986C17.7885 12.7605 18.6641 12.0927 18.3524 11.0953L12.9768 12.3621C15.8874 9.40271 18.5299 8.08318 20.9044 8.40351C23.279 8.72385 26.0847 8.04034 29.3216 6.35299C30.6954 5.60584 33.1692 5.98979 36.7432 7.50486L38.0089 7.84396Z" fill="white"/>
</mask>
<g mask="url(#mask0)">
<path d="M38.0089 7.84401L41.2885 4.81693L42.0528 9.7638L45.6717 7.24419L45.4399 11.1735C47.3169 13.1939 48.316 15.0707 48.4371 16.804C48.5582 18.5373 52.0355 23.4995 58.869 31.6907C60.3611 33.41 60.5854 34.8131 59.542 35.9002C57.9768 37.5308 59.7625 38.7277 56.9226 38.9534C54.0828 39.1791 52.171 38.9961 51.4409 37.4848C50.9542 36.4773 50.5563 35.7337 50.2472 35.2541L39.7408 32.4393C37.7058 32.3423 36.5122 32.951 36.16 34.2653C35.8077 35.5796 35.808 38.0887 36.1608 41.7924C38.4969 43.5231 39.3902 46.2017 38.8407 49.8282C38.2912 53.4547 36.4573 56.9832 33.3392 60.4137C25.8882 55.4859 20.8474 51.9566 18.2168 49.8257C8.6367 42.0659 5.50957 36.2692 8.83537 32.4357L8.12635 30.4611L3.70216 31.7867C7.17953 27.8635 9.44208 25.7556 10.4898 25.4629C11.5375 25.1702 9.87881 25.6244 5.51362 26.8255C8.07987 24.8245 9.51446 23.2588 9.8174 22.1283C10.2718 20.4327 10.8705 17.7682 13.6665 16.3862L8.83369 18.286C11.3657 15.1658 13.663 13.4367 15.7257 13.0986C17.7885 12.7605 18.664 12.0927 18.3523 11.0953L12.9767 12.3621C15.8873 9.40271 18.5298 8.08317 20.9043 8.40352C23.2789 8.72385 26.0846 8.04036 29.3215 6.35302C30.6953 5.60587 33.1692 5.98983 36.7431 7.5049L38.0089 7.84401Z" fill="#20175F"/>
<path fill-rule="evenodd" clip-rule="evenodd" d="M36.1581 42.2308C37.1098 50.2409 34.7045 55.9443 28.9419 59.3411C23.1794 62.738 25.4107 63.8184 35.6358 62.5825L42.4491 47.9139L38.8405 42.2311L36.3718 41.1891L36.1581 42.2308Z" fill="#060129"/>
<path fill-rule="evenodd" clip-rule="evenodd" d="M11.6598 30.1392C17.8948 39.1317 26.9553 45.6949 38.8412 49.8289C50.7272 53.9629 48.443 58.2145 31.9887 62.5838L8.41033 45.7488L4.91121 34.2621L11.6598 30.1392Z" fill="#150E4C"/>
</g>
<path fill-rule="evenodd" clip-rule="evenodd" d="M55.3194 32.7741C56.6093 33.4693 57.7858 33.1195 58.849 31.725C60.3411 33.4443 60.5654 34.8475 59.522 35.9345C57.9568 37.5651 59.7425 38.762 56.9027 38.9877C54.0628 39.2134 52.151 39.0304 51.4209 37.5191C50.9342 36.5116 50.5363 35.768 50.2272 35.2883C52.332 32.9171 54.0294 32.079 55.3194 32.7741Z" fill="#150E4C"/>
<path fill-rule="evenodd" clip-rule="evenodd" d="M54.3014 34.2695C54.8539 34.9189 55.0083 35.6983 54.7645 36.6078C54.3989 37.972 53.7478 36.3354 54.0246 35.3024C54.2091 34.6138 54.3014 34.2695 54.3014 34.2695Z" fill="#D9B4FC"/>
<path fill-rule="evenodd" clip-rule="evenodd" d="M51.9008 23.0906C45.948 24.1057 41.7036 23.8331 39.1673 22.273C36.6311 20.7128 34.3802 17.8723 32.4144 13.7514C30.4626 12.272 31.6056 11.9973 35.8433 12.9275C37.9492 13.3897 40.7483 12.722 42.9745 13.4702C44.477 13.9752 46.1552 14.9919 48.0091 16.5204L51.9008 23.0906Z" fill="#4F0397"/>
<path d="M41.4689 18.6752C42.4229 18.9308 43.4033 18.3652 43.6588 17.4118C43.9142 16.4584 43.3479 15.4783 42.394 15.2226C41.44 14.967 40.4595 15.5326 40.2041 16.486C39.9487 17.4394 40.5149 18.4196 41.4689 18.6752Z" fill="#F6ECFE"/>
<path d="M41.637 18.0482C42.2441 18.2108 42.868 17.8508 43.0306 17.2441C43.1932 16.6374 42.8329 16.0138 42.2258 15.8511C41.6187 15.6885 40.9948 16.0485 40.8322 16.6552C40.6696 17.2619 41.0299 17.8855 41.637 18.0482Z" fill="#20175F"/>
<path d="M42.3603 17.2334C42.5338 17.2798 42.712 17.177 42.7585 17.0036C42.805 16.8303 42.702 16.6521 42.5285 16.6056C42.3551 16.5592 42.1768 16.662 42.1304 16.8353C42.0839 17.0087 42.1869 17.1869 42.3603 17.2334Z" fill="white"/>
<path fill-rule="evenodd" clip-rule="evenodd" d="M38.2125 7.80184L41.5737 4.72024L42.1112 8.10555C42.5635 8.26389 42.9584 8.61663 43.296 9.16376C43.6335 9.71089 44.4841 10.3937 45.8476 11.2123C48.5267 13.4552 49.7088 15.1642 49.3939 16.3391C48.9216 18.1014 50.7716 19.4951 51.3451 18.9994C52.331 18.1474 51.0974 17.2416 51.3693 17.4033C51.7642 17.6382 52.1144 18.0053 52.3316 18.5778C53.1282 20.6776 51.1238 20.6111 50.676 20.6596C49.5691 20.7798 43.6461 19.9666 42.7908 16.7076C41.9354 13.4486 43.205 9.87428 42.1115 10.2113C41.0179 10.5483 39.7504 14.7278 36.6932 13.4714C33.636 12.215 35.0482 14.6332 32.0794 13.8379C29.1107 13.0425 29.1215 15.6197 24.8609 15.6686C22.9103 15.691 24.5055 17.8433 20.3638 18.3783C16.2221 18.9132 16.0908 24.5185 14.2725 25.1362C12.8801 25.6093 11.9216 27.4851 11.3972 30.7636L3.92188 34.6638L7.5778 30.8161L3.03841 32.1599C6.60085 28.1646 8.91961 26.0187 9.99466 25.7221C11.0697 25.4255 9.36771 25.8857 4.88865 27.1026C7.51938 25.0663 8.98918 23.4719 9.29803 22.3194C9.76132 20.5906 10.3709 17.8738 13.2387 16.4693L8.28086 18.398C10.8743 15.22 13.2295 13.4605 15.3464 13.1196C17.4634 12.7786 18.41 12.2687 18.186 11.5897L12.5229 12.3631C15.5053 9.34984 18.2156 8.00885 20.6539 8.34012C23.0923 8.67139 25.9714 7.9795 29.2912 6.26445C30.7001 5.5049 33.2405 5.90126 36.9125 7.45353L38.2125 7.80184Z" fill="#D456FD"/>
<path fill-rule="evenodd" clip-rule="evenodd" d="M38.0082 7.84598C39.1173 4.95219 40.4374 3.29826 41.9687 2.88418C42.2692 6.55834 42.297 8.85222 42.0522 9.7658C41.685 11.1362 38.2365 9.57991 37.7991 8.62634L38.0082 7.84598Z" fill="#20175F"/>
<path fill-rule="evenodd" clip-rule="evenodd" d="M39.1152 8.73989C39.8422 6.85427 40.7133 5.77871 41.7283 5.51322C41.9394 7.91274 41.9651 9.41032 41.8055 10.006C41.566 10.8994 39.2722 9.87256 38.9789 9.24867L39.1152 8.73989Z" fill="#150E4C"/>
<path fill-rule="evenodd" clip-rule="evenodd" d="M42.5068 8.94054C44.0067 6.86708 45.4036 5.82412 46.6977 5.81164C46.137 8.79807 45.6614 10.6295 45.2707 11.3059C44.6846 12.3205 42.3103 10.3678 42.1731 9.51831L42.5068 8.94054Z" fill="#20175F"/>
<path fill-rule="evenodd" clip-rule="evenodd" d="M43.4065 10.1028C44.3549 8.79384 45.24 8.13677 46.0619 8.13155C45.712 10.0201 45.4137 11.178 45.1669 11.6052C44.7968 12.246 43.2846 11.0055 43.1957 10.4677L43.4065 10.1028Z" fill="#150E4C"/>
<path fill-rule="evenodd" clip-rule="evenodd" d="M42.5629 10.1851L61.1642 2.32212L47.1237 14.2885C46.3085 14.8006 45.2503 14.7111 43.949 14.0199C42.6477 13.3287 42.1857 12.0504 42.5629 10.1851Z" fill="#F8E71C"/>
<path fill-rule="evenodd" clip-rule="evenodd" d="M48.8026 7.54928L61.1642 2.32387L51.7773 10.324C50.5884 10.1749 49.7948 9.91454 49.3964 9.54291C48.9979 9.17129 48.8 8.50674 48.8026 7.54928Z" fill="#009AFF"/>
<path fill-rule="evenodd" clip-rule="evenodd" d="M55.0861 5.90388C54.874 5.65252 54.8274 5.33467 54.9462 4.95034L61.1643 2.32188L56.2573 6.50395C55.6886 6.35526 55.2982 6.15524 55.0861 5.90388Z" fill="#BD10E0"/>
<path fill-rule="evenodd" clip-rule="evenodd" d="M34.1433 13.7147V12.1797H32.3856L31.3417 14.0241L32.3856 14.7582L34.1433 13.7147Z" fill="#4F0397"/>
<path fill-rule="evenodd" clip-rule="evenodd" d="M32.4271 12.4507C26.973 8.33012 21.335 7.3873 15.5131 9.62226C9.69119 11.8572 5.37139 12.5879 2.55371 11.8144L4.88884 13.7821L2.99682 15.4118C6.65208 15.8242 9.05093 15.5278 10.1934 14.5227C11.907 13.015 18.9222 9.75537 22.611 9.94735C25.0702 10.0753 28.4642 11.3536 32.7929 13.7821L32.4271 12.4507Z" fill="#4F0397" stroke="#4F0397"/>
<path fill-rule="evenodd" clip-rule="evenodd" d="M32.146 12.2967C26.5451 9.91888 21.6078 10.2251 17.3341 13.2154C13.0605 16.2056 9.65106 17.6512 7.10583 17.5523L9.73436 19.1359L8.39951 20.4646C11.5494 20.1003 13.4708 19.3886 14.1638 18.3297C15.2033 16.7413 20.2072 12.666 23.3284 12.1115C25.4092 11.7419 28.564 12.1499 32.7929 13.3354L32.146 12.2967Z" fill="#4F0397" stroke="#4F0397"/>
<path fill-rule="evenodd" clip-rule="evenodd" d="M24.2089 42.2812L26.3491 43.7797L13.1808 62.5844L14.1776 56.6766L24.2089 42.2812Z" fill="#009AFF"/>
<path d="M24.8265 43.4243C26.6652 44.7117 28.529 45.2224 28.9893 44.5651C29.4496 43.9078 28.3322 42.3313 26.4934 41.0439C24.6547 39.7565 22.7909 39.2458 22.3306 39.9031C21.8703 40.5604 22.9877 42.1369 24.8265 43.4243Z" fill="#F8E71C"/>
<path d="M33.6833 33.3051L31.5431 31.8066L24.7089 41.566L26.8491 43.0645L33.6833 33.3051Z" fill="#9013FE"/>
<path fill-rule="evenodd" clip-rule="evenodd" d="M32.0578 33.2465L32.4834 34.2699L31.3761 34.22L30.9505 33.1966L32.0578 33.2465Z" fill="white"/>
<path fill-rule="evenodd" clip-rule="evenodd" d="M30.8861 34.9183L31.3117 35.9417L30.2043 35.8919L29.7787 34.8685L30.8861 34.9183Z" fill="white"/>
<path fill-rule="evenodd" clip-rule="evenodd" d="M29.7142 36.5922L30.1398 37.6156L29.0324 37.5657L28.6068 36.5423L29.7142 36.5922Z" fill="white"/>
<path fill-rule="evenodd" clip-rule="evenodd" d="M28.5423 38.266L28.9679 39.2894L27.8606 39.2395L27.4349 38.2161L28.5423 38.266Z" fill="white"/>
<path fill-rule="evenodd" clip-rule="evenodd" d="M27.3706 39.9398L27.7962 40.9632L26.6888 40.9134L26.2632 39.8899L27.3706 39.9398Z" fill="white"/>
<path fill-rule="evenodd" clip-rule="evenodd" d="M15.885 37.5156L16.9886 40.3119L19.7868 41.4148L16.9886 42.5176L15.885 45.3139L14.7814 42.5176L11.9832 41.4148L14.7814 40.3119L15.885 37.5156ZM16.0476 42.0646C16.4965 42.0646 16.8604 41.7009 16.8604 41.2523C16.8604 40.8037 16.4965 40.44 16.0476 40.44C15.5986 40.44 15.2347 40.8037 15.2347 41.2523C15.2347 41.7009 15.5986 42.0646 16.0476 42.0646Z" fill="white"/>
<path fill-rule="evenodd" clip-rule="evenodd" d="M11.9831 33.6172L12.9028 35.9474L15.2346 36.8665L12.9028 37.7855L11.9831 40.1157L11.0634 37.7855L8.73157 36.8665L11.0634 35.9474L11.9831 33.6172ZM11.9831 37.5163C12.3422 37.5163 12.6334 37.2254 12.6334 36.8665C12.6334 36.5076 12.3422 36.2166 11.9831 36.2166C11.6239 36.2166 11.3328 36.5076 11.3328 36.8665C11.3328 37.2254 11.6239 37.5163 11.9831 37.5163Z" fill="white"/>
<path d="M21.1635 43.4423C21.5191 43.4923 21.8478 43.2448 21.8977 42.8894C21.9476 42.5339 21.6997 42.2052 21.344 42.1551C20.9884 42.105 20.6597 42.3526 20.6098 42.708C20.5599 43.0635 20.8078 43.3922 21.1635 43.4423Z" fill="#20175F"/>
<path d="M26.5519 47.151C26.9076 47.201 27.2364 46.9534 27.2863 46.598C27.3363 46.2425 27.0885 45.9139 26.7328 45.8639C26.3772 45.814 26.0484 46.0616 25.9984 46.417C25.9485 46.7724 26.1963 47.101 26.5519 47.151Z" fill="#20175F"/>
<path d="M21.2547 42.8492C21.7204 45.402 23.5344 46.6817 26.643 46.6703L26.6417 46.3454C23.6811 46.3562 22.0099 45.1773 21.5746 42.791L21.2547 42.8492Z" fill="#20175F"/>
<path d="M70.7849 45.5942V28.6211L82.3513 40.7462V29.7019H84.7447V46.5618L73.1783 34.4675V45.5942H70.7849ZM90.9388 29.7019V45.5942H88.5454V29.7019H90.9388ZM94.7497 45.5942V28.6211L106.316 40.7462V29.7019H108.709V46.5618L97.1431 34.4675V45.5942H94.7497ZM117.338 29.7019V39.9846C117.338 41.2129 117.252 42.1289 117.081 42.7328C116.91 43.419 116.619 43.9988 116.208 44.4723C115.407 45.4124 114.345 45.8824 113.024 45.8824C112.024 45.8824 111.089 45.6217 110.219 45.1002L111.39 43.0519C111.973 43.443 112.517 43.6386 113.024 43.6386C113.736 43.6386 114.229 43.3675 114.503 42.8254C114.791 42.2833 114.934 41.3364 114.934 39.9846V29.7019H117.338ZM129.911 41.7344H123.121L121.354 45.5942H118.776L126.624 28.7034L134.195 45.5942H131.575L129.911 41.7344ZM128.935 39.4802L126.583 34.0764L124.118 39.4802H128.935Z" fill="#150E4C"/>
<path d="M73.9523 23.7148C71.6698 23.7148 70.053 22.0402 70.053 19.6714V14.1985H71.1127V19.6714C71.1127 21.4685 72.2948 22.7482 73.9523 22.7482C75.6099 22.7482 76.7919 21.4685 76.7919 19.6714V14.1985H77.8516V19.6714C77.8516 22.0402 76.2348 23.7148 73.9523 23.7148ZM80.2972 23.5514V14.1985H81.357L87.1448 21.8088V14.1985H88.2046V23.5514H87.1448L81.357 15.9411V23.5514H80.2972ZM90.555 23.5514V14.1985H91.6148V23.5514H90.555ZM96.9951 23.7012C95.4598 23.7012 94.2506 23.143 93.3131 22.2172L93.9789 21.3868C94.7669 22.1764 95.7315 22.7346 97.0358 22.7346C98.476 22.7346 99.2097 21.9449 99.2097 21.1009C99.2097 20.107 98.3265 19.7122 96.6962 19.331C94.8212 18.8954 93.6392 18.31 93.6392 16.6899C93.6392 15.1923 94.9707 14.0215 96.7641 14.0215C98.1499 14.0215 99.1825 14.5661 100.038 15.3557L99.3863 16.1861C98.6119 15.4374 97.688 14.9881 96.7097 14.9881C95.5549 14.9881 94.7125 15.7505 94.7125 16.6082C94.7125 17.5748 95.6364 17.9151 97.226 18.2963C99.0059 18.7184 100.283 19.3583 100.283 21.0056C100.283 22.4895 99.1689 23.7012 96.9951 23.7012ZM104.712 23.5514L101.519 14.1985H102.715L105.296 21.768L107.769 14.1985H108.951L111.424 21.768L114.005 14.1985H115.201L112.008 23.5514H110.962L108.367 15.5871L105.758 23.5514H104.712ZM123.828 23.5514L122.891 21.4276H117.687L116.75 23.5514H115.595L119.712 14.1985H120.867L124.983 23.5514H123.828ZM118.122 20.4202H122.456L120.296 15.5054L118.122 20.4202ZM126.491 23.5514V14.1985H130.282C132.211 14.1985 133.719 15.4374 133.719 17.1936C133.719 18.9498 132.211 20.1887 130.282 20.1887H127.551V23.5514H126.491ZM127.551 19.1813H130.092C131.614 19.1813 132.646 18.4461 132.646 17.1936C132.646 15.9411 131.614 15.2059 130.092 15.2059H127.551V19.1813Z" fill="#150E4C"/>
<path fill-rule="evenodd" clip-rule="evenodd" d="M89.6167 48.334L90.8575 51.4764L94.0036 52.7157L90.8575 53.955L89.6167 57.0974L88.3759 53.955L85.2299 52.7157L88.3759 51.4764L89.6167 48.334ZM89.6167 53.592C90.1013 53.592 90.4941 53.1997 90.4941 52.7157C90.4941 52.2317 90.1013 51.8394 89.6167 51.8394C89.1321 51.8394 88.7393 52.2317 88.7393 52.7157C88.7393 53.1997 89.1321 53.592 89.6167 53.592Z" fill="#150E4C"/>
</svg>
