<svg width="20" height="20" viewBox="0 0 20 20" fill="none" xmlns="http://www.w3.org/2000/svg">
<circle class="colored-icon" cx="10" cy="10" r="10" fill="#000"/>
<path d="M11.6666 14.2812C11.6666 15.229 10.9189 16 9.99992 16C9.08092 16 8.33325 15.229 8.33325 14.2812C8.33325 13.3335 9.08092 12.5625 9.99992 12.5625C10.9189 12.5625 11.6666 13.3335 11.6666 14.2812ZM8.52617 5.54138L8.8095 11.3851C8.82281 11.6596 9.04244 11.875 9.30888 11.875H10.691C10.9574 11.875 11.177 11.6596 11.1903 11.3851L11.4737 5.54138C11.4879 5.24686 11.2603 5 10.9743 5H9.02554C8.73959 5 8.5119 5.24686 8.52617 5.54138Z" fill="#fff"/>
</svg>
