<svg width="21" height="16" viewBox="0 0 21 16" fill="none" xmlns="http://www.w3.org/2000/svg">
<path fill-rule="evenodd" clip-rule="evenodd" d="M13.1021 9.25677C12.3645 9.83584 11.2886 10.6805 10.5 10.6667C9.71143 10.6805 8.63554 9.83584 7.89794 9.25677C7.74549 9.13708 7.60748 9.02874 7.48945 8.94167C2.44491 5.22275 1.71996 4.64641 0.641627 3.78913C0.556501 3.72145 0.469173 3.65203 0.377344 3.57917C0.139453 3.3875 0 3.1 0 2.79167V2C0 0.895833 0.881836 0 1.96875 0H19.0312C20.1182 0 21 0.895833 21 2V2.79167C21 3.1 20.8605 3.39167 20.6227 3.57917C20.5523 3.63524 20.4846 3.68926 20.4184 3.742C19.3053 4.62993 18.6481 5.15414 13.5105 8.94167C13.3925 9.02874 13.2545 9.13708 13.1021 9.25677ZM21 5.47917C21 5.275 20.7621 5.15417 20.6021 5.28333C19.6834 6.00833 18.4693 6.93333 14.2857 10.0208C14.1588 10.1148 14.0167 10.2265 13.8617 10.3483C12.9998 11.0256 11.7411 12.0148 10.5 12.0042C9.26469 12.0112 8.02642 11.0406 7.15089 10.3543C6.99443 10.2317 6.84956 10.1181 6.71836 10.0208C2.53477 6.93333 1.3166 6.0125 0.397852 5.2875C0.233789 5.15833 0 5.275 0 5.48333V14C0 15.1042 0.881836 16 1.96875 16H19.0312C20.1182 16 21 15.1042 21 14V5.47917Z" fill="white"/>
</svg>
